PathFileType	4	(X/Y/Z)	Run_300 02
DataRate	CameraRate	NumFrames	NumMarkers	Units	OrigDataRate	OrigDataStartFrame	OrigNumFrames
100	100	8	42	mm	100	148	128
Frame#	Time	LASI			RASI			LPSI			RTH1			RTH2			RTH3			LTH1			LTH2			LTH3			RTB1			RTB2			RTB3			LTB1			LTB2			LTB3			RCAL			RTOE			RMT5			LCAL			LTOE			LMT5			LACR			RACR			CLAV			C7			RUA1			RUA2			RUA3			RLEL			RMEL			LUA1			LUA2			LUA3			LLEL			RFAsuperior			RFAradius			RFAulna			LFAsuperior			LFAradius			LFAulna			LMEL			RPSI		
		X1	Y1	Z1	X2	Y2	Z2	X3	Y3	Z3	X4	Y4	Z4	X5	Y5	Z5	X6	Y6	Z6	X7	Y7	Z7	X8	Y8	Z8	X9	Y9	Z9	X10	Y10	Z10	X11	Y11	Z11	X12	Y12	Z12	X13	Y13	Z13	X14	Y14	Z14	X15	Y15	Z15	X16	Y16	Z16	X17	Y17	Z17	X18	Y18	Z18	X19	Y19	Z19	X20	Y20	Z20	X21	Y21	Z21	X22	Y22	Z22	X23	Y23	Z23	X24	Y24	Z24	X25	Y25	Z25	X26	Y26	Z26	X27	Y27	Z27	X28	Y28	Z28	X29	Y29	Z29	X30	Y30	Z30	X31	Y31	Z31	X32	Y32	Z32	X33	Y33	Z33	X34	Y34	Z34	X35	Y35	Z35	X36	Y36	Z36	X37	Y37	Z37	X38	Y38	Z38	X39	Y39	Z39	X40	Y40	Z40	X41	Y41	Z41	X42	Y42	Z42	

148	  1.480000	1237.927711	963.120319	-462.128824	1240.206380	975.727221	-199.704900	1068.353244	1017.281223	-383.841187	1224.028583	818.086063	-145.043909	1283.836366	729.669930	-156.095727	1262.713477	587.860758	-185.137568	1173.447711	805.656383	-509.785327	1249.701907	682.844393	-493.633569	1187.987869	562.965127	-486.578348	1306.581868	334.422329	-269.271126	1232.447274	246.582840	-227.099230	1226.829811	178.488268	-297.210489	1063.050433	374.830385	-409.295286	996.779365	397.951681	-451.613116	924.370760	367.492816	-396.343674	1078.460029	104.577337	-297.705101	1312.940620	 74.815843	-311.687501	1294.837663	 53.832146	-234.315532	778.259332	461.704144	-380.862636	798.638316	220.981002	-356.160108	776.424385	242.335454	-443.490571	1262.468512	1491.024012	-462.046607	1265.966084	1443.091626	-116.225584	1311.450592	1404.086768	-265.706547	1209.017713	1509.099105	-286.900138	1200.810837	1314.797221	-37.700979	1130.382051	1318.364873	-30.601031	1136.026675	1246.407870	-13.121823	1095.178709	1182.014461	 15.451964	1050.201899	1177.364190	-66.144714	1186.188258	1394.047991	-543.563164	1098.178107	1360.549534	-526.695884	1118.909999	1288.537948	-573.614163	1088.784911	1229.457443	-597.114192	1177.768138	1156.137371	 -4.369909	1314.804691	1109.466058	-93.373900	1289.807724	1048.920969	-62.276132	1164.721927	1180.898360	-580.362027	1303.403643	1122.987786	-486.686421	1280.372798	1062.791314	-521.557283	1049.506958	1213.985735	-514.278658	1066.266345	1021.069881	-291.953639	
149	  1.490000	1233.949019	961.925810	-463.784898	1239.249105	972.453830	-199.430473	1065.036234	1016.167063	-381.809952	1220.579931	813.918773	-145.728867	1278.127569	724.205988	-157.131533	1252.838631	582.415876	-186.581264	1169.818442	804.306246	-510.629931	1256.432565	684.986649	-496.054809	1201.814779	563.063727	-490.067561	1287.582885	327.803949	-270.089995	1210.021983	243.685736	-227.827521	1200.641567	176.492900	-297.807559	1083.691332	373.948229	-411.314929	1017.157293	396.434863	-453.420805	945.238638	364.155842	-398.009898	1048.994879	105.949848	-297.616210	1283.245251	 73.948644	-312.027754	1264.952630	 53.886640	-234.451662	795.229503	455.078785	-382.415690	824.950409	215.380125	-357.144900	802.657215	235.664731	-444.885854	1256.706635	1488.935663	-462.346923	1268.791193	1439.681960	-116.973127	1310.195083	1401.418755	-266.725749	1207.321149	1506.223048	-286.238061	1208.134869	1309.188958	-39.036421	1137.597636	1309.295037	-30.909905	1146.342792	1238.051331	-13.549776	1109.670743	1171.747621	 14.640357	1061.848156	1165.617445	-65.379592	1177.799617	1392.863652	-542.413730	1089.815730	1360.778713	-521.638451	1107.603531	1289.411942	-570.549991	1076.185484	1230.915522	-594.090658	1193.337285	1147.066723	 -7.914536	1328.686032	1097.660018	-94.504683	1302.325758	1037.713782	-61.616466	1151.195728	1178.779046	-580.641016	1289.500928	1112.103355	-493.534730	1261.589225	1053.749776	-528.526544	1038.091534	1214.822652	-510.440492	1064.018926	1020.050669	-289.783085	
150	  1.500000	1230.725316	961.964511	-464.884241	1238.320823	970.016942	-198.252533	1062.370277	1015.869243	-379.976339	1216.217432	810.346514	-146.176010	1271.867306	718.946085	-158.227089	1242.236702	577.873168	-187.730083	1166.901386	803.893920	-511.514582	1263.166804	689.143283	-498.022656	1215.814689	565.004133	-493.121440	1266.976548	322.089876	-271.412841	1187.009247	241.080846	-228.858413	1174.092106	174.940512	-298.536083	1104.477489	373.900152	-412.866673	1037.369098	395.063696	-454.765495	966.374743	360.367821	-399.176412	1019.566517	107.602273	-297.669580	1253.445248	 73.118843	-312.452092	1234.959490	 54.050890	-234.675651	812.266991	446.379914	-382.622970	852.925917	208.086902	-358.857796	829.798335	227.852892	-446.526460	1250.347446	1488.627955	-462.480197	1272.422846	1437.462992	-117.763267	1308.927193	1400.057361	-267.913634	1205.393765	1504.444234	-285.288095	1214.964019	1305.491133	-39.959123	1144.652448	1302.665370	-32.045348	1155.815971	1232.270070	-14.524986	1121.903687	1164.650826	 13.022089	1072.417018	1157.786270	-66.200246	1168.391991	1394.201049	-541.100084	1080.720658	1363.423653	-517.033283	1095.678722	1293.029764	-568.283862	1062.695447	1235.207368	-591.811529	1206.619501	1140.951356	-11.593418	1341.420933	1091.448905	-97.776964	1314.595161	1031.928259	-63.604961	1135.709424	1178.869964	-581.812174	1274.984260	1107.159532	-500.345002	1242.675066	1049.828232	-533.370433	1026.380921	1219.038530	-507.445458	1062.281262	1019.559453	-287.726266	
151	  1.510000	1228.117793	962.963045	-465.447908	1237.391909	968.644512	-196.316157	1060.390195	1016.442156	-378.803583	1211.349786	807.605369	-146.827279	1264.923885	714.139886	-159.871770	1230.532511	574.097262	-188.594643	1165.672631	805.050908	-512.463755	1269.702773	695.229995	-499.433218	1229.249497	569.274068	-495.587689	1244.793365	317.396162	-272.871268	1163.054326	238.850461	-229.939556	1146.955462	173.719571	-299.093394	1125.115827	374.823750	-413.935882	1057.207036	393.838568	-455.619259	987.767429	356.288951	-399.796383	990.202452	109.505667	-297.870231	1223.560240	 72.303142	-312.797342	1204.847913	 54.027801	-234.853069	829.297306	435.676778	-381.303046	882.604144	199.457010	-361.473489	858.174663	219.386668	-448.754588	1243.920523	1489.820566	-462.229609	1276.542268	1436.413274	-118.401338	1307.998095	1400.059034	-269.382898	1203.853614	1504.267552	-283.817188	1221.479613	1303.156300	-40.950093	1151.393360	1298.670579	-33.045521	1163.976875	1228.639869	-16.100716	1131.266874	1160.349012	 11.216948	1081.801150	1153.356145	-68.070266	1158.271118	1398.067433	-539.521522	1071.247613	1368.486132	-512.731782	1083.366185	1299.131412	-566.635829	1048.367707	1242.092097	-590.137378	1216.458534	1137.181972	-14.225671	1351.778516	1091.770645	-103.004623	1326.119170	1031.971524	-68.665242	1118.760713	1181.988122	-583.261138	1260.251596	1108.143732	-506.682459	1224.363299	1051.120665	-536.183796	1014.605651	1226.344412	-505.110809	1060.988379	1019.836242	-286.367882	
152	  1.520000	1226.151712	964.792480	-465.351401	1236.425129	968.355756	-194.261924	1059.002485	1018.082216	-378.326535	1206.432427	805.847283	-147.920127	1256.930606	710.479166	-161.631838	1217.227665	571.126712	-189.327875	1166.258271	807.987234	-513.476679	1275.869252	702.890734	-500.570760	1241.494549	575.778791	-497.481652	1221.350236	313.775919	-274.014638	1138.121321	237.338960	-230.826661	1119.325504	173.003572	-299.314837	1145.423885	376.831673	-414.898006	1076.586376	392.895548	-456.159777	1009.549470	351.990271	-400.107702	960.980804	111.698148	-298.086470	1193.673933	 71.551877	-313.061235	1174.672337	 53.873838	-234.984269	846.382036	422.978501	-378.686877	914.052435	189.990032	-364.995520	887.916024	210.561913	-451.635443	1237.824078	1492.245166	-461.527341	1280.611149	1436.739747	-119.045130	1307.428069	1401.304203	-271.125432	1202.905502	1505.693902	-282.002813	1227.702756	1302.272808	-42.551116	1157.498407	1297.311069	-33.835412	1170.586085	1227.291877	-17.898850	1138.436058	1158.405313	  9.356596	1090.191314	1151.503857	-70.510250	1147.944604	1404.166856	-537.636866	1062.011873	1375.716388	-508.556271	1071.034086	1307.442805	-565.327207	1033.778128	1251.273423	-588.723801	1223.617726	1136.416167	-16.363156	1359.817586	1098.502314	-109.527899	1336.897255	1037.549135	-76.159054	1101.798427	1188.933511	-584.252049	1245.667746	1114.173422	-512.099336	1207.108034	1057.126190	-537.362798	1002.527835	1236.065642	-503.153485	1059.956246	1021.155346	-285.798184	
153	  1.530000	1225.038227	967.489500	-464.429596	1235.388274	969.099779	-192.895422	1058.166716	1020.882193	-378.297102	1201.566366	805.027410	-149.288231	1247.746591	708.537541	-162.674427	1202.258338	569.273242	-190.041249	1168.015348	812.426768	-514.573002	1281.501316	711.769973	-501.888529	1252.260070	583.855415	-498.924176	1197.081337	311.363443	-274.763482	1112.409536	236.939411	-231.359315	1091.493814	173.053626	-299.252296	1165.371780	379.820976	-416.152854	1095.495046	392.344871	-456.600608	1031.781168	347.437438	-400.339364	932.004617	114.409122	-298.037511	1163.871513	 70.901085	-313.319736	1144.513849	 53.765038	-235.150228	863.764680	408.307133	-375.279706	947.218239	180.201677	-369.168080	918.894713	201.421691	-454.819015	1232.219848	1495.706475	-460.519488	1284.081793	1438.718557	-119.932586	1306.930032	1403.755409	-272.993460	1202.293648	1508.436549	-280.269248	1233.256856	1303.175622	-44.723915	1162.642122	1298.143168	-34.837952	1175.889367	1228.296694	-19.512655	1144.696774	1158.461420	  7.304869	1097.733065	1151.560709	-73.109222	1137.926816	1412.030948	-535.468929	1053.420610	1384.680349	-504.485137	1058.975597	1317.688766	-564.055198	1019.570731	1262.471950	-587.152002	1229.798742	1139.530347	-19.251041	1366.395433	1110.448605	-116.624621	1347.183864	1047.811742	-84.872860	1086.029115	1199.611429	-584.399441	1231.456394	1123.913358	-516.357788	1191.051729	1066.859995	-537.458599	989.906562	1247.524808	-501.282951	1059.116921	1023.508584	-285.779602	
154	  1.540000	1224.843960	971.064541	-462.914889	1234.300831	970.835509	-192.859240	1057.901400	1024.749805	-378.469140	1196.606737	804.999497	-150.627501	1237.888429	707.924603	-163.005544	1186.063157	568.822706	-190.700342	1170.163405	817.970812	-515.793566	1286.448644	721.580891	-503.482273	1261.607451	592.775202	-500.094683	1172.320524	310.292807	-275.245117	1086.154357	237.820701	-231.499499	1063.756954	173.978333	-299.001767	1184.971140	383.388558	-417.732729	1113.932428	392.084306	-457.011341	1054.254856	342.533634	-400.501762	903.387317	118.070124	-297.418542	1134.170300	 70.301779	-313.641289	1114.415029	 53.751418	-235.415982	881.780657	391.793186	-371.641033	981.909986	170.483498	-373.428019	950.906290	191.870051	-457.753468	1227.120151	1500.125227	-459.498966	1286.568304	1442.492048	-121.113007	1306.162228	1407.503508	-274.793786	1201.598999	1512.254425	-278.979598	1237.717782	1306.026755	-46.936067	1166.789959	1300.438182	-36.185970	1180.615522	1231.186265	-20.918296	1151.040453	1160.160504	  5.000891	1104.473441	1153.137050	-75.544865	1128.655241	1421.201557	-533.120034	1045.543596	1394.992584	-500.632650	1047.396958	1329.535180	-562.541006	1006.090879	1275.387888	-585.070643	1236.145980	1146.243441	-23.378716	1372.165546	1125.933274	-123.884095	1357.086855	1061.618286	-93.880615	1071.727049	1213.020369	-583.739110	1217.726324	1136.061138	-519.432109	1176.181902	1079.138742	-537.054250	977.045316	1260.340086	-499.184762	1058.571723	1026.645800	-286.043349	
155	  1.550000	1225.246286	975.378921	-461.647737	1233.279286	973.513773	-194.335092	1058.183009	1029.487829	-378.729187	1191.562654	805.736575	-151.823997	1228.294973	707.495693	-163.724977	1169.267224	569.822582	-191.183608	1172.298748	824.364305	-517.168490	1290.619177	732.013484	-504.993805	1269.777021	602.155890	-501.155239	1147.255244	310.639636	-275.391457	1059.583984	239.939667	-231.313339	1036.347695	175.750507	-298.530302	1204.125995	387.028630	-419.283949	1131.893456	391.765844	-457.291135	1076.602111	337.199469	-400.511580	875.285046	123.129326	-296.167000	1104.546129	 69.651543	-314.055123	1084.363011	 53.787552	-235.761567	900.706360	373.711386	-368.227028	1017.881115	161.085182	-377.072188	983.863273	181.863590	-460.045279	1222.507965	1505.534339	-458.756920	1287.927282	1447.976016	-122.434636	1304.980117	1412.601428	-276.373938	1200.561525	1517.060567	-278.260780	1241.089130	1310.679366	-48.735769	1170.274405	1303.638936	-37.447740	1185.535851	1235.181959	-22.370178	1157.775261	1163.118789	  2.597095	1110.424447	1156.015517	-77.588142	1120.453763	1431.317580	-530.767983	1038.353468	1406.482511	-497.059298	1036.505515	1342.588384	-560.576878	993.397576	1289.661816	-582.285309	1242.739615	1155.126011	-28.174780	1377.122641	1143.507972	-131.235127	1366.384868	1077.865055	-102.853605	1058.512959	1227.929627	-582.446364	1204.606571	1149.622935	-521.401657	1162.476075	1092.901005	-536.621660	964.730654	1274.406189	-496.463362	1058.469141	1030.340948	-286.422075	
